<svg width="416" height="274" viewBox="0 0 416 274" fill="none" xmlns="http://www.w3.org/2000/svg">
<rect x="0.807617" y="0.218262" width="414.634" height="235.433" rx="10.2366" fill="#017968"/>
<g filter="url(#filter0_d_97_3052)">
<path d="M43.47 36.6148C43.47 33.0821 46.3338 30.2183 49.8665 30.2183H374.671C378.204 30.2183 381.067 33.0821 381.067 36.6148V226.491C381.067 230.023 378.204 232.887 374.671 232.887H49.8665C46.3338 232.887 43.47 230.023 43.47 226.491V36.6148Z" fill="#FFFFFE"/>
</g>
<g opacity="0.3">
<path d="M120.138 232.887H43.47V36.5317C43.47 33.0449 46.2966 30.2183 49.7834 30.2183H120.138V232.887Z" fill="url(#paint0_linear_97_3052)" fill-opacity="0.45"/>
<path d="M120.138 232.887H43.47V36.5317C43.47 33.0449 46.2966 30.2183 49.7834 30.2183H120.138V232.887Z" stroke="url(#paint1_linear_97_3052)"/>
</g>
<path opacity="0.3" d="M132.648 146.298C132.648 145.041 133.667 144.021 134.925 144.021H185.537C186.795 144.021 187.815 145.041 187.815 146.298V176.779C187.815 178.037 186.795 179.056 185.537 179.056H134.925C133.667 179.056 132.648 178.037 132.648 176.779V146.298Z" fill="#E3E3E3"/>
<path opacity="0.3" d="M192.247 146.298C192.247 145.041 193.266 144.021 194.524 144.021H245.137C246.394 144.021 247.414 145.041 247.414 146.298V176.779C247.414 178.037 246.394 179.056 245.137 179.056H194.524C193.266 179.056 192.247 178.037 192.247 176.779V146.298Z" fill="#E3E3E3"/>
<path opacity="0.3" d="M251.846 146.298C251.846 145.041 252.865 144.021 254.123 144.021H304.735C305.993 144.021 307.013 145.041 307.013 146.298V176.779C307.013 178.037 305.993 179.056 304.735 179.056H254.123C252.865 179.056 251.846 178.037 251.846 176.779V146.298Z" fill="#E3E3E3"/>
<path opacity="0.3" d="M311.445 146.298C311.445 145.041 312.464 144.021 313.722 144.021H364.335C365.592 144.021 366.612 145.041 366.612 146.298V176.779C366.612 178.037 365.592 179.056 364.335 179.056H313.722C312.464 179.056 311.445 178.037 311.445 176.779V146.298Z" fill="#E3E3E3"/>
<circle cx="67.2262" cy="48.4861" r="4.11548" fill="#017968"/>
<circle cx="78.5922" cy="48.4861" r="4.11548" fill="#C9E0DD"/>
<circle cx="89.9582" cy="48.4861" r="4.11548" fill="#C9E0DD"/>
<path d="M136.542 188.728H242.575C244.544 188.728 246.14 190.323 246.14 192.291V224.742C246.14 226.71 244.544 228.306 242.575 228.306H136.542C134.574 228.306 132.979 226.71 132.979 224.742V192.291C132.979 190.323 134.574 188.728 136.542 188.728Z" fill="#FFFFFE" stroke="url(#paint2_linear_97_3052)" stroke-width="0.661767"/>
<path d="M256.684 188.728H362.717C364.685 188.728 366.281 190.323 366.281 192.291V224.742C366.281 226.71 364.685 228.306 362.717 228.306H256.684C254.715 228.306 253.12 226.71 253.12 224.742V192.291C253.12 190.323 254.715 188.728 256.684 188.728Z" fill="#FFFFFE" stroke="url(#paint3_linear_97_3052)" stroke-width="0.661767"/>
<g filter="url(#filter1_d_97_3052)">
<rect x="227.382" y="153.265" width="164.089" height="98.1265" rx="6.39653" fill="#FFFFFE"/>
</g>
<rect x="237.171" y="163.313" width="34.0362" height="34.4617" rx="4.7974" fill="#C8FECD"/>
<path d="M253.11 185.536C253.547 185.536 253.902 185.181 253.902 184.744C253.902 184.307 253.547 183.952 253.11 183.952C252.673 183.952 252.318 184.307 252.318 184.744C252.318 185.181 252.673 185.536 253.11 185.536Z" fill="#017968"/>
<path d="M253.11 177.136C253.547 177.136 253.902 176.781 253.902 176.344C253.902 175.907 253.547 175.552 253.11 175.552C252.673 175.552 252.318 175.907 252.318 176.344C252.318 176.781 252.673 177.136 253.11 177.136Z" fill="#017968"/>
<path d="M264.302 169.353C263.891 168.941 263.344 168.714 262.762 168.714H254.467C253.886 168.714 253.339 168.941 252.927 169.352L241.918 180.361C241.507 180.773 241.28 181.32 241.28 181.902C241.28 182.483 241.507 183.03 241.918 183.442L250.212 191.736C250.624 192.147 251.171 192.374 251.752 192.374C252.334 192.374 252.881 192.147 253.293 191.736L264.302 180.727C264.713 180.315 264.94 179.768 264.94 179.187V170.892C264.94 170.31 264.713 169.763 264.302 169.353ZM253.11 174.166C254.311 174.166 255.288 175.143 255.288 176.344C255.288 177.545 254.311 178.522 253.11 178.522C251.909 178.522 250.932 177.545 250.932 176.344C250.932 175.143 251.909 174.166 253.11 174.166ZM253.11 186.922C251.909 186.922 250.932 185.945 250.932 184.744C250.932 183.543 251.909 182.566 253.11 182.566C254.311 182.566 255.288 183.543 255.288 184.744C255.288 185.945 254.311 186.922 253.11 186.922ZM257.565 181.237H248.655C248.272 181.237 247.962 180.927 247.962 180.544C247.962 180.161 248.272 179.851 248.655 179.851H257.565C257.947 179.851 258.258 180.161 258.258 180.544C258.258 180.927 257.947 181.237 257.565 181.237ZM260.534 173.813C260.152 173.813 259.841 173.502 259.841 173.12C259.841 172.737 260.152 172.427 260.534 172.427C260.917 172.427 261.227 172.737 261.227 173.12C261.227 173.502 260.917 173.813 260.534 173.813Z" fill="#017968"/>
<rect width="52.6211" height="3.64525" rx="1.82262" transform="matrix(1 0 0 -1 279.604 195.385)" fill="#E3E3E3"/>
<rect width="147.88" height="3.64525" rx="1.82262" transform="matrix(1 0 0 -1 237.171 220.927)" fill="#E3E3E3"/>
<rect width="77.5001" height="3.64525" rx="1.82262" transform="matrix(1 0 0 -1 237.171 231.556)" fill="#E3E3E3"/>
<rect width="80.7203" height="3.64525" rx="1.82262" transform="matrix(1 0 0 -1 279.604 187.598)" fill="#E3E3E3"/>
<rect width="147.88" height="3.64525" rx="1.82262" transform="matrix(1 0 0 -1 237.171 210.298)" fill="#E3E3E3"/>
<path d="M286.582 165.016L288.838 168.889L293.218 169.837L290.232 173.179L290.683 177.638L286.582 175.831L282.481 177.638L282.932 173.179L279.946 169.837L284.326 168.889L286.582 165.016Z" fill="#FFC846"/>
<path d="M302.328 165.016L304.583 168.889L308.964 169.837L305.978 173.179L306.429 177.638L302.328 175.831L298.226 177.638L298.678 173.179L295.692 169.837L300.072 168.889L302.328 165.016Z" fill="#FFC846"/>
<path d="M318.073 165.016L320.329 168.889L324.709 169.837L321.723 173.179L322.174 177.638L318.073 175.831L313.972 177.638L314.423 173.179L311.437 169.837L315.817 168.889L318.073 165.016Z" fill="#FFC846"/>
<path d="M333.818 165.016L336.074 168.889L340.455 169.837L337.468 173.179L337.92 177.638L333.818 175.831L329.717 177.638L330.168 173.179L327.182 169.837L331.563 168.889L333.818 165.016Z" fill="#FFC846"/>
<path d="M349.564 165.016L351.819 168.889L356.2 169.837L353.214 173.179L353.665 177.638L349.564 175.831L345.462 177.638L345.914 173.179L342.927 169.837L347.308 168.889L349.564 165.016Z" fill="#FFC846"/>
<rect x="341.593" y="230.13" width="43.4579" height="15.3663" rx="3.19826" fill="#017968"/>
<g filter="url(#filter2_d_97_3052)">
<rect x="23.2653" y="171.475" width="189.004" height="79.9164" rx="4.4805" fill="#FFFFFE"/>
</g>
<rect width="35.3308" height="4.61167" rx="2.30584" transform="matrix(1 0 0 -1 32.9681 235.651)" fill="#E3E3E3"/>
<rect width="54.1971" height="4.61167" rx="2.30584" transform="matrix(1 0 0 -1 32.9681 225.8)" fill="#E3E3E3"/>
<rect x="32.9681" y="182.161" width="31.0455" height="31.4336" rx="3.31672" fill="#F4D5FF"/>
<g clip-path="url(#clip0_97_3052)">
<path d="M44.391 198.647V205.948C44.391 206.163 44.3055 206.369 44.1534 206.521C44.0013 206.673 43.7949 206.759 43.5798 206.759H40.335C40.1199 206.759 39.9135 206.673 39.7614 206.521C39.6093 206.369 39.5238 206.163 39.5238 205.948V198.647C39.5238 198.432 39.6093 198.225 39.7614 198.073C39.9135 197.921 40.1199 197.836 40.335 197.836H43.5798C43.7949 197.836 44.0013 197.921 44.1534 198.073C44.3055 198.225 44.391 198.432 44.391 198.647ZM50.0693 188.913H46.8246C46.6094 188.913 46.4031 188.998 46.251 189.15C46.0988 189.302 46.0134 189.509 46.0134 189.724V205.948C46.0134 206.163 46.0988 206.369 46.251 206.521C46.4031 206.673 46.6094 206.759 46.8246 206.759H50.0693C50.2845 206.759 50.4908 206.673 50.6429 206.521C50.7951 206.369 50.8805 206.163 50.8805 205.948V189.724C50.8805 189.509 50.7951 189.302 50.6429 189.15C50.4908 188.998 50.2845 188.913 50.0693 188.913ZM56.5589 192.969H53.3141C53.099 192.969 52.8926 193.054 52.7405 193.206C52.5884 193.358 52.5029 193.565 52.5029 193.78V205.948C52.5029 206.163 52.5884 206.369 52.7405 206.521C52.8926 206.673 53.099 206.759 53.3141 206.759H56.5589C56.774 206.759 56.9804 206.673 57.1325 206.521C57.2846 206.369 57.3701 206.163 57.3701 205.948V193.78C57.3701 193.565 57.2846 193.358 57.1325 193.206C56.9804 193.054 56.774 192.969 56.5589 192.969Z" fill="#983EB9"/>
</g>
<path d="M103.303 225.753L112.884 231.047C113.891 231.603 115.137 231.482 116.018 230.742L121.182 226.404C121.683 225.983 122.316 225.753 122.971 225.753H131.261C131.944 225.753 132.603 225.501 133.112 225.047L141.239 217.799C142.371 216.79 144.102 216.873 145.132 217.986L151.288 224.641C152.664 226.129 155.12 225.692 155.898 223.82L162.207 208.639C162.941 206.871 165.2 206.357 166.627 207.632L171.208 211.721C171.717 212.176 172.377 212.428 173.06 212.428H178.198C179.437 212.428 180.526 213.248 180.87 214.438L182.318 219.457C183.068 222.059 186.718 222.162 187.614 219.606L198.648 188.147" stroke="#F3963C" stroke-width="1.85416"/>
<path opacity="0.5" d="M112.884 231.047L107.43 228.033C105.576 227.009 103.303 228.349 103.303 230.467V238.121H198.648V188.147L187.614 219.606C186.718 222.162 183.068 222.059 182.318 219.457L180.87 214.438C180.526 213.248 179.437 212.428 178.198 212.428H173.06C172.377 212.428 171.717 212.176 171.208 211.721L166.627 207.632C165.2 206.357 162.941 206.871 162.207 208.639L155.898 223.82C155.12 225.692 152.664 226.129 151.288 224.641L145.132 217.986C144.102 216.873 142.37 216.79 141.239 217.799L133.112 225.047C132.603 225.501 131.944 225.753 131.261 225.753H122.971C122.316 225.753 121.683 225.983 121.182 226.404L116.018 230.742C115.137 231.482 113.891 231.603 112.884 231.047Z" fill="url(#paint4_linear_97_3052)"/>
<circle opacity="0.2" cx="197.497" cy="190.454" r="6.62294" fill="#F3963C"/>
<circle cx="197.497" cy="190.453" r="3.71163" fill="#F3963C"/>
<g filter="url(#filter3_d_97_3052)">
<path d="M15.0848 74.5709C15.0848 71.1172 17.8846 68.3174 21.3383 68.3174H226.163C229.617 68.3174 232.417 71.1172 232.417 74.5709V91.7151C232.417 95.1688 229.617 97.9686 226.163 97.9686H21.3383C17.8846 97.9686 15.0848 95.1688 15.0848 91.7151V74.5709Z" fill="#FFFFFE"/>
<path d="M21.3387 68.9795H226.163C229.251 68.9795 231.755 71.483 231.755 74.5713V91.7148C231.755 94.8031 229.251 97.3066 226.163 97.3066H21.3387C18.2504 97.3066 15.7469 94.8031 15.7469 91.7148V74.5713C15.7469 71.4831 18.2504 68.9795 21.3387 68.9795Z" stroke="url(#paint5_linear_97_3052)" stroke-width="1.32353"/>
</g>
<path opacity="0.5" d="M37.965 89.1247L34.4998 85.5208C35.3907 84.4616 35.8789 83.129 35.8789 81.7417C35.8789 78.5004 33.2418 75.8633 30.0005 75.8633C26.7592 75.8633 24.1221 78.5004 24.1221 81.7417C24.1221 84.983 26.7592 87.6201 30.0005 87.6201C31.2173 87.6201 32.3769 87.2531 33.3683 86.5564L36.8598 90.1877C37.0058 90.3393 37.2021 90.4228 37.4124 90.4228C37.6115 90.4228 37.8004 90.3469 37.9438 90.2089C38.2484 89.9158 38.2581 89.4296 37.965 89.1247ZM30.0005 77.3968C32.3963 77.3968 34.3454 79.3459 34.3454 81.7417C34.3454 84.1375 32.3963 86.0866 30.0005 86.0866C27.6046 86.0866 25.6556 84.1375 25.6556 81.7417C25.6556 79.3459 27.6046 77.3968 30.0005 77.3968Z" fill="#017968"/>
<rect opacity="0.5" width="101.722" height="7.34653" rx="3.67327" transform="matrix(1 0 0 -1 47.9487 86.8164)" fill="#E3E3E3"/>
<rect x="134.354" y="128.729" width="7.53492" height="7.08012" rx="3.54006" transform="rotate(-90 134.354 128.729)" fill="#54EDAB"/>
<rect x="185.757" y="128.729" width="7.83016" height="7.08012" rx="3.54006" transform="rotate(-90 185.757 128.729)" fill="#54EDAB"/>
<rect x="237.16" y="128.729" width="21.6974" height="7.08012" rx="3.54006" transform="rotate(-90 237.16 128.729)" fill="#54EDAB"/>
<rect x="288.562" y="128.729" width="41.2121" height="7.08012" rx="3.54006" transform="rotate(-90 288.562 128.729)" fill="#54EDAB"/>
<rect x="339.964" y="128.729" width="36.4957" height="7.08012" rx="3.54006" transform="rotate(-90 339.964 128.729)" fill="#54EDAB"/>
<rect x="148.138" y="128.729" width="13.5476" height="7.08012" rx="3.54006" transform="rotate(-90 148.138 128.729)" fill="#249686"/>
<rect x="199.541" y="128.729" width="9.65795" height="7.08012" rx="3.54006" transform="rotate(-90 199.541 128.729)" fill="#249686"/>
<rect x="250.943" y="128.729" width="32.4402" height="7.08012" rx="3.54006" transform="rotate(-90 250.943 128.729)" fill="#249686"/>
<rect x="302.346" y="128.729" width="61.52" height="7.08012" rx="3.54006" transform="rotate(-90 302.346 128.729)" fill="#249686"/>
<rect x="353.748" y="128.729" width="42.9978" height="7.08012" rx="3.54006" transform="rotate(-90 353.748 128.729)" fill="#249686"/>
<defs>
<filter id="filter0_d_97_3052" x="27.3187" y="20.4636" width="369.9" height="234.971" filterUnits="userSpaceOnUse" color-interpolation-filters="sRGB">
<feFlood flood-opacity="0" result="BackgroundImageFix"/>
<feColorMatrix in="SourceAlpha" type="matrix" values="0 0 0 0 0 0 0 0 0 0 0 0 0 0 0 0 0 0 127 0" result="hardAlpha"/>
<feOffset dy="6.39653"/>
<feGaussianBlur stdDeviation="8.07562"/>
<feComposite in2="hardAlpha" operator="out"/>
<feColorMatrix type="matrix" values="0 0 0 0 0 0 0 0 0 0 0 0 0 0 0 0 0 0 0.1 0"/>
<feBlend mode="normal" in2="BackgroundImageFix" result="effect1_dropShadow_97_3052"/>
<feBlend mode="normal" in="SourceGraphic" in2="effect1_dropShadow_97_3052" result="shape"/>
</filter>
<filter id="filter1_d_97_3052" x="211.231" y="143.51" width="196.391" height="130.429" filterUnits="userSpaceOnUse" color-interpolation-filters="sRGB">
<feFlood flood-opacity="0" result="BackgroundImageFix"/>
<feColorMatrix in="SourceAlpha" type="matrix" values="0 0 0 0 0 0 0 0 0 0 0 0 0 0 0 0 0 0 127 0" result="hardAlpha"/>
<feOffset dy="6.39653"/>
<feGaussianBlur stdDeviation="8.07562"/>
<feComposite in2="hardAlpha" operator="out"/>
<feColorMatrix type="matrix" values="0 0 0 0 0 0 0 0 0 0 0 0 0 0 0 0 0 0 0.04 0"/>
<feBlend mode="normal" in2="BackgroundImageFix" result="effect1_dropShadow_97_3052"/>
<feBlend mode="normal" in="SourceGraphic" in2="effect1_dropShadow_97_3052" result="shape"/>
</filter>
<filter id="filter2_d_97_3052" x="18.5697" y="156.191" width="211.63" height="102.543" filterUnits="userSpaceOnUse" color-interpolation-filters="sRGB">
<feFlood flood-opacity="0" result="BackgroundImageFix"/>
<feColorMatrix in="SourceAlpha" type="matrix" values="0 0 0 0 0 0 0 0 0 0 0 0 0 0 0 0 0 0 127 0" result="hardAlpha"/>
<feOffset dx="6.61767" dy="-3.9706"/>
<feGaussianBlur stdDeviation="5.65663"/>
<feComposite in2="hardAlpha" operator="out"/>
<feColorMatrix type="matrix" values="0 0 0 0 0 0 0 0 0 0 0 0 0 0 0 0 0 0 0.03 0"/>
<feBlend mode="normal" in2="BackgroundImageFix" result="effect1_dropShadow_97_3052"/>
<feBlend mode="normal" in="SourceGraphic" in2="effect1_dropShadow_97_3052" result="shape"/>
</filter>
<filter id="filter3_d_97_3052" x="10.3946" y="51.1202" width="239.219" height="51.5387" filterUnits="userSpaceOnUse" color-interpolation-filters="sRGB">
<feFlood flood-opacity="0" result="BackgroundImageFix"/>
<feColorMatrix in="SourceAlpha" type="matrix" values="0 0 0 0 0 0 0 0 0 0 0 0 0 0 0 0 0 0 127 0" result="hardAlpha"/>
<feOffset dx="6.25352" dy="-6.25352"/>
<feGaussianBlur stdDeviation="5.47183"/>
<feComposite in2="hardAlpha" operator="out"/>
<feColorMatrix type="matrix" values="0 0 0 0 0 0 0 0 0 0 0 0 0 0 0 0 0 0 0.04 0"/>
<feBlend mode="normal" in2="BackgroundImageFix" result="effect1_dropShadow_97_3052"/>
<feBlend mode="normal" in="SourceGraphic" in2="effect1_dropShadow_97_3052" result="shape"/>
</filter>
<linearGradient id="paint0_linear_97_3052" x1="81.8038" y1="30.2183" x2="81.8038" y2="232.887" gradientUnits="userSpaceOnUse">
<stop stop-color="#C9E0DD"/>
<stop offset="1" stop-color="#C9E0DD" stop-opacity="0"/>
</linearGradient>
<linearGradient id="paint1_linear_97_3052" x1="81.8038" y1="30.2183" x2="81.8038" y2="232.887" gradientUnits="userSpaceOnUse">
<stop stop-color="#03A68D"/>
<stop offset="1" stop-color="#03A68D" stop-opacity="0"/>
</linearGradient>
<linearGradient id="paint2_linear_97_3052" x1="189.559" y1="188.396" x2="189.559" y2="228.637" gradientUnits="userSpaceOnUse">
<stop stop-color="#E3E3E3"/>
<stop offset="1" stop-color="#E3E3E3" stop-opacity="0"/>
</linearGradient>
<linearGradient id="paint3_linear_97_3052" x1="309.7" y1="188.396" x2="309.7" y2="228.637" gradientUnits="userSpaceOnUse">
<stop stop-color="#E3E3E3"/>
<stop offset="1" stop-color="#E3E3E3" stop-opacity="0"/>
</linearGradient>
<linearGradient id="paint4_linear_97_3052" x1="150.976" y1="188.147" x2="150.976" y2="238.121" gradientUnits="userSpaceOnUse">
<stop stop-color="#F3963C"/>
<stop offset="1" stop-color="#F3963C" stop-opacity="0"/>
</linearGradient>
<linearGradient id="paint5_linear_97_3052" x1="58.9013" y1="68.3174" x2="100.567" y2="134.562" gradientUnits="userSpaceOnUse">
<stop stop-color="#03A68D"/>
<stop offset="1" stop-color="#03A68D" stop-opacity="0"/>
</linearGradient>
<clipPath id="clip0_97_3052">
<rect width="19.4687" height="19.4687" fill="white" transform="translate(38.7122 188.102)"/>
</clipPath>
</defs>
</svg>
